<?xml version="1.0" encoding="UTF-8" standalone="no"?>
<!DOCTYPE svg PUBLIC "-//W3C//DTD SVG 1.1//EN" "http://www.w3.org/Graphics/SVG/1.1/DTD/svg11.dtd">
<svg xmlns="http://www.w3.org/2000/svg" version="1.1" viewBox="0.00 0.00 512.00 512.00">
<g stroke-width="2.00" fill="none" stroke-linecap="butt">
<path stroke="#f79c9d" vector-effect="non-scaling-stroke" d="
  M 275.26 203.07
  A 17.29 17.29 0.0 0 0 257.97 185.78
  L 254.03 185.78
  A 17.29 17.29 0.0 0 0 236.74 203.07
  L 236.74 285.97
  A 17.29 17.29 0.0 0 0 254.03 303.26
  L 257.97 303.26
  A 17.29 17.29 0.0 0 0 275.26 285.97
  L 275.26 203.07"
/>
<path stroke="#f79c9d" vector-effect="non-scaling-stroke" d="
  M 275.25 349.71
  A 19.26 19.26 0.0 0 0 255.99 330.45
  A 19.26 19.26 0.0 0 0 236.73 349.71
  A 19.26 19.26 0.0 0 0 255.99 368.97
  A 19.26 19.26 0.0 0 0 275.25 349.71"
/>
</g>
<path fill="#ee404c" d="
  M 404.98 410.28
  L 107.02 410.29
  A 30.68 30.68 0.0 0 1 80.45 364.27
  L 229.43 106.22
  A 30.68 30.68 0.0 0 1 282.57 106.22
  L 431.55 364.26
  A 30.68 30.68 0.0 0 1 404.98 410.28
  Z
  M 275.26 203.07
  A 17.29 17.29 0.0 0 0 257.97 185.78
  L 254.03 185.78
  A 17.29 17.29 0.0 0 0 236.74 203.07
  L 236.74 285.97
  A 17.29 17.29 0.0 0 0 254.03 303.26
  L 257.97 303.26
  A 17.29 17.29 0.0 0 0 275.26 285.97
  L 275.26 203.07
  Z
  M 275.25 349.71
  A 19.26 19.26 0.0 0 0 255.99 330.45
  A 19.26 19.26 0.0 0 0 236.73 349.71
  A 19.26 19.26 0.0 0 0 255.99 368.97
  A 19.26 19.26 0.0 0 0 275.25 349.71
  Z"
/>
<rect fill="#fff7ed" x="236.74" y="185.78" width="38.52" height="117.48" rx="17.29"/>
<circle fill="#fff7ed" cx="255.99" cy="349.71" r="19.26"/>
</svg>
